<?xml version="1.0" standalone="no"?>
<!DOCTYPE svg PUBLIC "-//W3C//DTD SVG 20010904//EN"
 "http://www.w3.org/TR/2001/REC-SVG-20010904/DTD/svg10.dtd">
<svg version="1.0" xmlns="http://www.w3.org/2000/svg"
 width="640.000000pt" height="640.000000pt" viewBox="0 0 640.000000 640.000000"
 preserveAspectRatio="xMidYMid meet">

<g transform="translate(0.000000,640.000000) scale(0.100000,-0.100000)"
fill="#000000" stroke="none">
<path d="M2668 3641 c-30 -24 -53 -82 -44 -114 8 -31 -30 -70 -56 -56 -10 6
-29 7 -40 3 -42 -13 -53 -34 -52 -95 l1 -58 -81 -3 c-73 -3 -81 -5 -81 -23 0
-19 8 -20 155 -23 120 -2 166 1 203 13 l48 16 28 -29 c26 -28 33 -30 135 -37
115 -8 295 -3 314 9 6 4 9 13 5 21 -4 13 -38 15 -198 15 -106 0 -200 3 -209 6
-22 8 -22 70 0 78 13 5 15 1 10 -19 -5 -19 -2 -27 10 -32 21 -8 44 21 44 54 0
23 0 23 145 23 124 0 147 2 152 16 10 28 -18 34 -169 34 -138 0 -148 1 -148
19 0 10 7 24 15 31 12 10 16 8 25 -14 11 -29 22 -33 40 -12 9 12 9 21 -2 43
-35 73 -141 15 -123 -68 4 -17 2 -29 -3 -29 -6 0 -13 13 -17 30 -7 32 -44 67
-82 76 -43 11 -24 94 22 94 27 0 34 -27 14 -47 -15 -15 -4 -43 15 -43 8 0 22
10 30 22 49 70 -39 151 -106 99z m52 -190 c5 -11 10 -36 10 -55 0 -31 -5 -38
-40 -56 -22 -11 -60 -23 -84 -26 -36 -5 -47 -3 -65 15 -28 28 -30 101 -2 101
23 0 47 -25 31 -35 -15 -9 -12 -45 3 -45 7 0 22 6 32 14 10 7 26 11 35 9 22
-6 33 22 14 37 -15 13 -19 42 -7 53 14 15 63 7 73 -12z"/>
<path d="M3776 3639 c-17 -13 -26 -30 -26 -49 0 -37 30 -73 53 -65 19 8 23 30
7 40 -5 3 -10 15 -10 26 0 14 7 19 25 19 46 0 65 -83 22 -94 -38 -9 -75 -44
-82 -76 -4 -17 -11 -30 -17 -30 -5 0 -7 12 -3 29 8 39 -18 89 -51 97 -51 13
-102 -37 -74 -71 18 -22 29 -18 40 11 9 22 13 24 25 14 8 -7 15 -21 15 -31 0
-18 -10 -19 -147 -19 -152 0 -180 -6 -170 -34 5 -14 28 -16 152 -16 145 0 145
0 145 -23 0 -33 23 -62 44 -54 12 5 15 13 10 34 -7 25 -6 27 9 14 22 -17 22
-67 1 -75 -9 -3 -103 -6 -209 -6 -161 0 -194 -2 -199 -15 -10 -27 31 -35 181
-34 201 1 251 9 278 43 l22 28 47 -16 c34 -12 86 -16 192 -16 152 0 196 9 173
36 -8 10 -34 14 -91 14 l-80 0 7 41 c13 77 -37 133 -98 110 -24 -9 -28 -7 -40
17 -7 15 -12 35 -9 45 6 28 -18 85 -45 107 -33 26 -63 25 -97 -1z m122 -192
c2 -10 -3 -26 -12 -35 -17 -19 -7 -45 15 -41 8 2 25 -3 38 -10 30 -17 51 0 34
28 -14 22 0 41 29 41 27 0 25 -73 -3 -101 -18 -18 -29 -20 -65 -15 -24 3 -62
15 -84 26 -38 19 -40 23 -40 65 0 31 5 47 18 54 26 16 66 9 70 -12z"/>
<path d="M3246 3343 c-4 -9 -2 -21 3 -26 15 -15 41 0 41 23 0 25 -35 28 -44 3z"/>
<path d="M4363 3304 c-7 -18 11 -39 26 -30 17 11 13 46 -4 46 -9 0 -18 -7 -22
-16z"/>
<path d="M2183 3294 c-8 -22 18 -37 36 -20 7 8 10 19 7 25 -10 16 -36 13 -43
-5z"/>
<path d="M0 3260 c0 -20 6 -20 1046 -20 990 0 1045 1 1042 18 -3 16 -62 17
-1046 20 -1037 2 -1042 2 -1042 -18z"/>
<path d="M4532 3253 c3 -17 57 -18 936 -21 927 -2 932 -2 932 18 0 20 -6 20
-936 20 -886 0 -935 -1 -932 -17z"/>
</g>
</svg>
