<?xml version="1.0" standalone="no"?>
<!DOCTYPE svg PUBLIC "-//W3C//DTD SVG 20010904//EN"
 "http://www.w3.org/TR/2001/REC-SVG-20010904/DTD/svg10.dtd">
<svg version="1.0" xmlns="http://www.w3.org/2000/svg"
 width="184.000000pt" height="56.000000pt" viewBox="0 0 184.000000 56.000000"
 preserveAspectRatio="xMidYMid meet">
<metadata>
Created by potrace 1.10, written by Peter Selinger 2001-2011
</metadata>
<g transform="translate(0.000000,56.000000) scale(0.100000,-0.100000)"
fill="#000000" stroke="none">
<path d="M742 525 c-17 -19 -34 -52 -38 -72 -7 -37 -9 -44 -12 -87 -2 -16 -5
-17 -14 -8 -17 17 -285 16 -339 0 -78 -24 -139 -124 -125 -206 7 -49 55 -118
93 -136 39 -18 168 -22 179 -5 11 18 -11 30 -67 35 -62 5 -111 22 -103 35 3 5
0 8 -7 7 -19 -4 -43 51 -41 95 1 52 21 88 60 110 31 18 123 25 345 27 9 0 17
7 17 15 0 19 -1 19 61 -5 47 -19 53 -19 82 -5 38 19 60 19 99 -1 28 -15 34
-15 70 2 32 14 45 16 71 7 18 -6 104 -12 192 -13 181 -1 218 -5 252 -27 19
-13 21 -18 11 -25 -10 -7 -8 -8 5 -4 11 3 17 0 17 -9 0 -8 4 -15 9 -15 12 0
22 -55 15 -89 -8 -41 -47 -83 -70 -75 -14 4 -16 3 -5 -4 19 -14 4 -20 -69 -26
-35 -4 -68 -10 -73 -15 -20 -20 7 -31 77 -31 65 0 77 3 114 30 23 16 49 42 59
56 21 33 26 138 8 174 -20 37 -76 86 -114 99 -45 15 -338 15 -343 0 -2 -7 -16
-4 -38 8 -19 11 -48 23 -63 27 -32 8 -34 38 -4 44 22 5 22 -15 0 -21 -14 -4
-13 -5 4 -6 12 0 24 -5 27 -10 12 -19 46 -19 57 1 24 45 -44 159 -95 157 -15
0 -16 -2 -6 -6 23 -9 60 -45 76 -75 16 -31 19 -78 4 -78 -5 0 -10 12 -10 28 0
15 -11 44 -25 64 -32 48 -77 61 -188 57 -74 -4 -89 -7 -112 -29 -23 -21 -55
-76 -55 -95 0 -3 65 -5 145 -5 90 0 145 -4 145 -10 0 -6 -58 -10 -155 -10
-149 0 -155 1 -155 20 0 35 39 100 73 120 27 17 29 20 11 20 -12 0 -35 -15
-52 -35z m226 -3 c-25 -5 -23 -22 2 -22 11 0 20 -4 20 -10 0 -5 7 -7 15 -4 8
4 15 1 15 -5 0 -6 -5 -11 -12 -11 -6 0 -3 -6 8 -14 10 -8 17 -16 14 -18 -3 -2
-67 -2 -142 0 l-138 3 15 29 c23 45 59 60 145 58 41 -1 67 -3 58 -6z m42 -12
c0 -5 -4 -10 -10 -10 -5 0 -10 5 -10 10 0 6 5 10 10 10 6 0 10 -4 10 -10z m27
-12 c-3 -8 -6 -5 -6 6 -1 11 2 17 5 13 3 -3 4 -12 1 -19z m26 -15 c-7 -2 -13
-11 -13 -19 0 -8 -4 -14 -10 -14 -5 0 -10 4 -10 8 0 12 22 32 35 31 5 0 4 -3
-2 -6z m21 -29 c3 -8 2 -12 -4 -9 -6 3 -10 10 -10 16 0 14 7 11 14 -7z m16
-34 c0 -5 -4 -10 -10 -10 -5 0 -10 5 -10 10 0 6 5 10 10 10 6 0 10 -4 10 -10z
m-280 -42 c0 -4 -9 -8 -20 -8 -11 0 -20 4 -20 8 0 4 9 8 20 8 11 0 20 -4 20
-8z m170 0 c0 -5 -11 -8 -25 -8 -14 0 -25 3 -25 8 0 4 11 7 25 7 14 0 25 -3
25 -7z m-229 -15 c25 -15 33 -16 62 -4 55 22 75 24 99 7 28 -20 57 -20 82 -1
11 8 27 15 35 15 23 0 101 -34 101 -44 0 -9 -16 -5 -68 16 -29 11 -37 11 -63
-5 -37 -21 -59 -22 -85 -2 -10 8 -30 14 -44 14 -14 0 -34 -6 -44 -14 -25 -19
-55 -19 -80 0 -11 8 -28 15 -38 15 -10 0 -18 5 -18 10 0 15 29 12 61 -7z m-81
-23 c0 -6 -60 -10 -160 -10 -173 0 -193 -5 -239 -54 -35 -37 -41 -127 -12
-174 32 -49 76 -72 144 -72 31 0 57 -4 57 -10 0 -6 -26 -10 -57 -10 -114 0
-187 74 -180 181 4 66 31 110 85 139 32 17 59 19 200 20 101 0 162 -4 162 -10z
m857 -16 c100 -75 94 -231 -12 -291 -42 -24 -155 -33 -155 -13 0 6 25 10 55
10 64 0 102 16 139 60 22 26 26 42 26 90 0 48 -4 64 -26 90 -47 55 -67 60
-244 60 -106 0 -160 4 -160 11 0 7 56 9 174 7 159 -3 177 -5 203 -24z"/>
<path d="M370 283 c-8 -3 -22 -7 -30 -10 -8 -4 -17 -6 -20 -5 -3 0 -3 -36 0
-80 6 -96 21 -114 70 -86 25 14 31 14 41 2 14 -17 51 -18 67 -2 7 7 13 28 13
47 2 34 2 35 6 6 11 -75 93 -90 93 -17 0 13 12 44 26 69 l27 45 -21 20 c-20
20 -22 20 -47 4 -21 -14 -29 -15 -41 -5 -25 21 -96 19 -120 -3 -21 -19 -22
-19 -35 0 -8 10 -21 17 -29 15z m28 -58 l18 -36 17 36 c9 19 23 35 32 35 12 0
15 -15 15 -75 0 -60 -3 -75 -15 -75 -11 0 -15 12 -16 48 -1 43 -1 45 -11 20
-12 -35 -36 -36 -44 -3 -10 42 -22 28 -16 -20 4 -41 3 -45 -17 -45 -20 0 -21
5 -21 75 0 68 2 75 20 75 12 0 26 -13 38 -35z m155 8 l14 -26 18 26 c9 15 26
27 37 27 17 0 17 -3 -7 -37 -16 -24 -25 -51 -25 -75 0 -31 -4 -38 -20 -38 -16
0 -20 7 -20 36 0 20 -8 48 -18 62 -33 48 -34 52 -13 52 12 0 26 -11 34 -27z"/>
<path d="M695 270 c-19 -21 -21 -153 -2 -167 26 -21 64 -23 99 -4 35 17 37 17
59 0 30 -23 42 -23 80 -3 28 14 32 14 50 -2 15 -14 21 -15 34 -4 12 10 22 10
39 2 18 -8 28 -7 42 3 16 11 23 11 47 -1 15 -9 37 -12 49 -8 11 3 48 5 82 4
78 -2 72 -2 134 3 28 3 54 1 57 -3 3 -5 17 -5 33 -1 21 6 26 13 24 32 -4 38
-4 52 3 81 6 21 1 32 -23 56 -27 27 -34 29 -76 22 -25 -4 -46 -4 -46 0 0 4
-24 8 -54 9 -44 2 -57 -2 -65 -16 -9 -17 -11 -17 -41 0 -32 19 -78 16 -92 -6
-5 -8 -18 -7 -47 3 -22 7 -58 10 -80 7 -24 -3 -41 -1 -44 6 -2 7 -15 5 -36 -6
-25 -13 -37 -14 -51 -5 -14 9 -25 9 -44 0 -17 -8 -26 -8 -28 0 -6 18 -85 17
-103 -2z m106 -31 c7 -14 8 -24 1 -31 -7 -7 -6 -18 3 -32 13 -19 13 -25 -1
-44 -12 -17 -25 -22 -60 -22 l-44 0 0 75 0 75 45 0 c35 0 47 -4 56 -21z m71
-36 c3 -50 6 -58 23 -58 17 0 20 8 23 58 3 49 6 57 22 57 17 0 20 -7 20 -46 0
-71 -23 -104 -72 -104 -38 0 -58 33 -58 97 0 46 3 53 20 53 16 0 19 -8 22 -57z
m200 40 c22 -20 24 -61 3 -69 -13 -5 -12 -11 6 -35 l20 -29 -23 0 c-14 0 -27
8 -33 22 -15 32 -33 34 -28 3 4 -20 1 -25 -16 -25 -20 0 -21 5 -21 75 l0 75
37 0 c20 0 45 -7 55 -17z m152 -2 c17 -18 17 -19 -1 -23 -10 -2 -26 1 -36 6
-14 9 -21 7 -33 -8 -17 -24 -18 -37 -1 -60 10 -13 20 -16 35 -12 25 8 30 26 7
26 -8 0 -15 7 -15 15 0 10 10 15 30 15 29 0 30 -2 30 -44 l0 -43 -45 -1 c-33
-1 -51 4 -65 18 -24 24 -26 77 -4 108 20 28 74 30 98 3z m146 4 c0 -10 -11
-15 -35 -15 -24 0 -35 -5 -35 -15 0 -9 9 -15 25 -15 16 0 25 -6 25 -15 0 -9
-9 -15 -25 -15 -15 0 -25 -6 -25 -14 0 -11 9 -13 35 -9 31 5 35 3 35 -16 0
-19 -6 -21 -50 -21 l-50 0 0 75 0 75 50 0 c38 0 50 -4 50 -15z m111 5 c20 -11
27 -64 9 -75 -6 -4 -4 -17 5 -36 15 -28 14 -29 -5 -29 -12 0 -25 10 -32 25 -6
14 -15 25 -20 25 -4 0 -8 -11 -8 -25 0 -17 -5 -25 -17 -25 -16 0 -18 10 -18
75 l0 75 33 0 c18 0 42 -5 53 -10z"/>
<path d="M740 215 c0 -8 7 -15 15 -15 8 0 15 7 15 15 0 8 -7 15 -15 15 -8 0
-15 -7 -15 -15z"/>
<path d="M740 160 c0 -15 5 -20 18 -18 9 2 17 10 17 18 0 8 -8 16 -17 18 -13
2 -18 -3 -18 -18z"/>
<path d="M1013 210 c-1 -16 3 -21 20 -18 28 4 29 32 2 36 -15 2 -21 -3 -22
-18z"/>
<path d="M1430 210 c0 -15 5 -20 18 -18 9 2 17 10 17 18 0 8 -8 16 -17 18 -13
2 -18 -3 -18 -18z"/>
<path d="M1125 60 c-3 -6 4 -10 17 -11 13 0 18 -3 12 -5 -13 -6 -7 -44 7 -44
5 0 9 11 9 25 0 20 5 25 23 24 16 -1 18 -2 5 -6 -10 -2 -18 -8 -18 -13 0 -5 7
-7 15 -4 8 4 15 1 15 -4 0 -6 -7 -13 -15 -15 -11 -4 -10 -4 2 -3 10 1 19 11
21 24 3 18 10 22 38 22 19 0 34 -4 34 -10 0 -14 17 -12 23 3 4 10 -15 13 -80
15 -47 1 -88 4 -93 7 -5 3 -11 1 -15 -5z"/>
<path d="M503 44 c-3 -7 -3 -21 0 -31 3 -12 5 -8 6 10 1 23 5 27 31 27 26 0
30 -4 31 -27 l1 -28 11 28 c6 15 14 27 19 27 11 0 10 -7 -2 -31 -7 -13 -7 -19
0 -19 5 0 10 8 10 17 0 15 2 14 16 -3 8 -10 13 -14 10 -7 -12 24 6 43 40 43
19 0 34 -5 34 -10 0 -6 8 -5 20 2 17 11 22 10 31 -2 8 -11 12 -12 16 -2 2 6 9
12 14 12 6 0 6 -8 -1 -19 -14 -28 -12 -36 5 -21 8 7 15 19 15 26 0 24 20 15
32 -14 l12 -27 4 28 c3 22 8 28 25 25 16 -2 21 -9 20 -26 -2 -15 1 -21 8 -16
6 3 8 15 6 26 -5 16 -1 19 26 16 26 -2 32 -7 31 -25 0 -13 2 -23 5 -23 13 0
26 16 26 30 0 8 11 17 25 21 20 6 21 7 5 8 -11 0 -27 -3 -35 -9 -8 -5 -19 -5
-25 -1 -5 5 -113 8 -239 8 -173 -1 -229 -4 -233 -13z"/>
<path d="M1050 44 c-19 -7 -27 -13 -17 -13 9 -1 17 -5 17 -10 0 -5 -8 -12 -17
-14 -15 -4 -14 -5 3 -6 13 -1 25 8 32 24 6 14 16 25 22 25 5 0 12 -11 16 -25
7 -28 24 -34 24 -9 0 15 -28 45 -40 42 -3 0 -21 -6 -40 -14z"/>
<path d="M530 30 c0 -5 5 -10 10 -10 6 0 10 5 10 10 0 6 -4 10 -10 10 -5 0
-10 -4 -10 -10z"/>
<path d="M650 26 c0 -8 4 -18 10 -21 6 -3 7 1 4 9 -3 9 -2 16 4 16 6 0 13 -6
15 -12 3 -8 6 -6 6 5 1 11 -6 17 -19 17 -11 0 -20 -6 -20 -14z"/>
<path d="M735 30 c-4 -6 -2 -17 4 -23 15 -15 25 -2 13 19 -7 12 -11 13 -17 4z"/>
<path d="M870 30 c0 -5 5 -10 10 -10 6 0 10 5 10 10 0 6 -4 10 -10 10 -5 0
-10 -4 -10 -10z"/>
<path d="M930 30 c0 -5 6 -10 13 -10 8 0 7 -4 -3 -11 -13 -9 -13 -10 0 -6 21
5 26 37 6 37 -9 0 -16 -4 -16 -10z"/>
<path d="M1240 30 c0 -5 5 -10 10 -10 6 0 10 5 10 10 0 6 -4 10 -10 10 -5 0
-10 -4 -10 -10z"/>
<path d="M1270 23 c0 -13 5 -23 10 -23 13 0 13 11 0 30 -8 12 -10 11 -10 -7z"/>
<path d="M1320 25 c-7 -9 -11 -17 -9 -20 3 -2 10 5 17 15 14 24 10 26 -8 5z"/>
<path d="M1076 15 c-3 -8 -1 -15 4 -15 6 0 10 7 10 15 0 8 -2 15 -4 15 -2 0
-6 -7 -10 -15z"/>
<path d="M538 3 c7 -3 16 -2 19 1 4 3 -2 6 -13 5 -11 0 -14 -3 -6 -6z"/>
</g>
</svg>
